<?xml version="1.0" ?><svg data-name="Layer 1" id="Layer_1" viewBox="0 0 32 32" xmlns="http://www.w3.org/2000/svg"><defs><style>.cls-1{fill:#7dccfc;}</style></defs><title/><path class="cls-1" d="M9.59,16.59a2,2,0,0,0,0,2.83l5,5a2,2,0,0,0,2.83,0l5-5a2,2,0,0,0-2.83-2.83L19,17.2,18,19V2a2,2,0,0,0-4,0V19l-1-1.79-.63-.63a2,2,0,0,0-2.83,0Z"/><path class="cls-1" d="M31,14.88c-.19-3-1.93-4.74-5-4.87H22a2,2,0,0,0-2,2h0v.09a2,2,0,0,0,1.67,2,4,4,0,0,1,2.61,1.66,4.11,4.11,0,0,1-.57,5.22l-4.89,4.89a4,4,0,0,1-5.66,0L8.4,21.05A4.36,4.36,0,0,1,7.1,17.26a3.88,3.88,0,0,1,3.18-3.18,2,2,0,0,0,1.68-2V12a2,2,0,0,0-2-2H6c-3,0-4.87,1.88-5,5V27.08A4.78,4.78,0,0,0,5.87,32H26.13A4.86,4.86,0,0,0,31,27V15S31,14.92,31,14.88Z"/></svg>