<svg id="Layer_1" data-name="Layer 1" xmlns="http://www.w3.org/2000/svg" viewBox="0 0 122.88 95.2"><defs><style>.cls-1{fill:#de9c2d;}.cls-2{fill:#fad460;}</style></defs><title>folder-desktop</title><path class="cls-1" d="M2.48,20.74H7V10.88A2.48,2.48,0,0,1,9.46,8.4h4.4V2.48A2.49,2.49,0,0,1,16.35,0H56.61a2.48,2.48,0,0,1,2.48,2.48V8.4h54.3a2.48,2.48,0,0,1,2.48,2.48v9.86h4.53a2.48,2.48,0,0,1,2.48,2.48,2.33,2.33,0,0,1-.06.53l-8.68,63.81c-.48,5.67-3,7.64-7.94,7.64H14.7c-5.45,0-7.41-2.46-8-7.72L0,23.48a2.48,2.48,0,0,1,2.21-2.72h.26Z"/><path class="cls-2" d="M6.58,22.83H2.35L9.57,88.89c.17,1.64,1.24,3.27,3,3.27h95.51c1.81,0,2.82-1.72,3-3.34l9.28-66Z"/></svg>