<?xml version="1.0" encoding="iso-8859-1"?>
<!-- Uploaded to: SVG Repo, www.svgrepo.com, Generator: SVG Repo Mixer Tools -->
<svg height="800px" width="800px" version="1.1" id="Layer_1" xmlns="http://www.w3.org/2000/svg" xmlns:xlink="http://www.w3.org/1999/xlink" 
	 viewBox="0 0 511.754 511.754" xml:space="preserve">
<g>
	<path style="fill:#25AD87;" d="M435.078,255.876c0,98.97-80.23,179.2-179.2,179.2s-179.2-80.23-179.2-179.2
		s80.23-179.2,179.2-179.2S435.078,156.906,435.078,255.876"/>
	<g>
		<path style="fill:#C6421E;" d="M80.894,439.393c-2.185,0-4.369-0.836-6.033-2.5c-99.814-99.814-99.814-262.221,0-362.035
			c3.337-3.328,8.73-3.328,12.066,0c3.337,3.337,3.337,8.738,0,12.066c-93.158,93.158-93.158,244.745,0,337.903
			c3.337,3.337,3.337,8.73,0,12.066C85.263,438.557,83.078,439.393,80.894,439.393"/>
		<path style="fill:#C6421E;" d="M430.86,439.393c-2.185,0-4.369-0.836-6.033-2.5c-3.337-3.337-3.337-8.73,0-12.066
			c93.158-93.158,93.158-244.745,0-337.903c-3.337-3.328-3.337-8.73,0-12.066c3.337-3.328,8.73-3.328,12.066,0
			c99.814,99.814,99.814,262.221,0,362.035C435.229,438.557,433.045,439.393,430.86,439.393"/>
	</g>
	<g>
		<polygon style="fill:#FFFFFF;" points="290.011,332.676 290.011,238.809 290.011,204.676 213.211,204.676 213.211,238.809 
			238.811,238.809 238.811,332.676 204.678,332.676 204.678,366.809 238.811,366.809 290.011,366.809 324.144,366.809 
			324.144,332.676 		"/>
		<path style="fill:#FFFFFF;" d="M281.478,144.943c0,14.14-11.46,25.6-25.6,25.6s-25.6-11.46-25.6-25.6
			c0-14.14,11.46-25.6,25.6-25.6S281.478,130.803,281.478,144.943"/>
	</g>
</g>
</svg>